<svg width="32" height="32" viewBox="0 0 32 32" fill="none" xmlns="http://www.w3.org/2000/svg">
<path d="M16.0001 25.3333C16.2638 25.3333 16.5216 25.2551 16.7408 25.1085C16.9601 24.962 17.131 24.7538 17.2319 24.5102C17.3328 24.2665 17.3592 23.9984 17.3078 23.7398C17.2563 23.4812 17.1294 23.2436 16.9429 23.0571C16.7564 22.8706 16.5188 22.7437 16.2602 22.6922C16.0016 22.6408 15.7335 22.6672 15.4898 22.7681C15.2462 22.869 15.038 23.0399 14.8915 23.2592C14.7449 23.4784 14.6667 23.7362 14.6667 23.9999C14.6667 24.3535 14.8072 24.6927 15.0573 24.9427C15.3073 25.1928 15.6465 25.3333 16.0001 25.3333ZM22.6667 25.3333C22.9305 25.3333 23.1882 25.2551 23.4075 25.1085C23.6268 24.962 23.7977 24.7538 23.8986 24.5102C23.9995 24.2665 24.0259 23.9984 23.9745 23.7398C23.923 23.4812 23.796 23.2436 23.6096 23.0571C23.4231 22.8706 23.1855 22.7437 22.9269 22.6922C22.6682 22.6408 22.4001 22.6672 22.1565 22.7681C21.9129 22.869 21.7046 23.0399 21.5581 23.2592C21.4116 23.4784 21.3334 23.7362 21.3334 23.9999C21.3334 24.3535 21.4739 24.6927 21.7239 24.9427C21.974 25.1928 22.3131 25.3333 22.6667 25.3333ZM22.6667 19.9999C22.9305 19.9999 23.1882 19.9217 23.4075 19.7752C23.6268 19.6287 23.7977 19.4205 23.8986 19.1768C23.9995 18.9332 24.0259 18.6651 23.9745 18.4065C23.923 18.1478 23.796 17.9102 23.6096 17.7238C23.4231 17.5373 23.1855 17.4103 22.9269 17.3589C22.6682 17.3074 22.4001 17.3338 22.1565 17.4347C21.9129 17.5357 21.7046 17.7066 21.5581 17.9258C21.4116 18.1451 21.3334 18.4029 21.3334 18.6666C21.3334 19.0202 21.4739 19.3593 21.7239 19.6094C21.974 19.8594 22.3131 19.9999 22.6667 19.9999ZM16.0001 19.9999C16.2638 19.9999 16.5216 19.9217 16.7408 19.7752C16.9601 19.6287 17.131 19.4205 17.2319 19.1768C17.3328 18.9332 17.3592 18.6651 17.3078 18.4065C17.2563 18.1478 17.1294 17.9102 16.9429 17.7238C16.7564 17.5373 16.5188 17.4103 16.2602 17.3589C16.0016 17.3074 15.7335 17.3338 15.4898 17.4347C15.2462 17.5357 15.038 17.7066 14.8915 17.9258C14.7449 18.1451 14.6667 18.4029 14.6667 18.6666C14.6667 19.0202 14.8072 19.3593 15.0573 19.6094C15.3073 19.8594 15.6465 19.9999 16.0001 19.9999ZM25.3334 3.99992H24.0001V2.66659C24.0001 2.31296 23.8596 1.97382 23.6096 1.72378C23.3595 1.47373 23.0204 1.33325 22.6667 1.33325C22.3131 1.33325 21.974 1.47373 21.7239 1.72378C21.4739 1.97382 21.3334 2.31296 21.3334 2.66659V3.99992H10.6667V2.66659C10.6667 2.31296 10.5263 1.97382 10.2762 1.72378C10.0262 1.47373 9.68704 1.33325 9.33341 1.33325C8.97979 1.33325 8.64065 1.47373 8.39061 1.72378C8.14056 1.97382 8.00008 2.31296 8.00008 2.66659V3.99992H6.66675C5.60588 3.99992 4.58847 4.42135 3.83832 5.17149C3.08818 5.92164 2.66675 6.93905 2.66675 7.99992V26.6666C2.66675 27.7275 3.08818 28.7449 3.83832 29.495C4.58847 30.2452 5.60588 30.6666 6.66675 30.6666H25.3334C26.3943 30.6666 27.4117 30.2452 28.1618 29.495C28.912 28.7449 29.3334 27.7275 29.3334 26.6666V7.99992C29.3334 6.93905 28.912 5.92164 28.1618 5.17149C27.4117 4.42135 26.3943 3.99992 25.3334 3.99992ZM26.6667 26.6666C26.6667 27.0202 26.5263 27.3593 26.2762 27.6094C26.0262 27.8594 25.687 27.9999 25.3334 27.9999H6.66675C6.31313 27.9999 5.97399 27.8594 5.72394 27.6094C5.47389 27.3593 5.33341 27.0202 5.33341 26.6666V14.6666H26.6667V26.6666ZM26.6667 11.9999H5.33341V7.99992C5.33341 7.6463 5.47389 7.30716 5.72394 7.05711C5.97399 6.80706 6.31313 6.66659 6.66675 6.66659H8.00008V7.99992C8.00008 8.35354 8.14056 8.69268 8.39061 8.94273C8.64065 9.19278 8.97979 9.33325 9.33341 9.33325C9.68704 9.33325 10.0262 9.19278 10.2762 8.94273C10.5263 8.69268 10.6667 8.35354 10.6667 7.99992V6.66659H21.3334V7.99992C21.3334 8.35354 21.4739 8.69268 21.7239 8.94273C21.974 9.19278 22.3131 9.33325 22.6667 9.33325C23.0204 9.33325 23.3595 9.19278 23.6096 8.94273C23.8596 8.69268 24.0001 8.35354 24.0001 7.99992V6.66659H25.3334C25.687 6.66659 26.0262 6.80706 26.2762 7.05711C26.5263 7.30716 26.6667 7.6463 26.6667 7.99992V11.9999ZM9.33341 19.9999C9.59712 19.9999 9.85491 19.9217 10.0742 19.7752C10.2934 19.6287 10.4643 19.4205 10.5653 19.1768C10.6662 18.9332 10.6926 18.6651 10.6411 18.4065C10.5897 18.1478 10.4627 17.9102 10.2762 17.7238C10.0898 17.5373 9.85218 17.4103 9.59353 17.3589C9.33489 17.3074 9.0668 17.3338 8.82317 17.4347C8.57954 17.5357 8.3713 17.7066 8.22479 17.9258C8.07828 18.1451 8.00008 18.4029 8.00008 18.6666C8.00008 19.0202 8.14056 19.3593 8.39061 19.6094C8.64065 19.8594 8.97979 19.9999 9.33341 19.9999ZM9.33341 25.3333C9.59712 25.3333 9.85491 25.2551 10.0742 25.1085C10.2934 24.962 10.4643 24.7538 10.5653 24.5102C10.6662 24.2665 10.6926 23.9984 10.6411 23.7398C10.5897 23.4812 10.4627 23.2436 10.2762 23.0571C10.0898 22.8706 9.85218 22.7437 9.59353 22.6922C9.33489 22.6408 9.0668 22.6672 8.82317 22.7681C8.57954 22.869 8.3713 23.0399 8.22479 23.2592C8.07828 23.4784 8.00008 23.7362 8.00008 23.9999C8.00008 24.3535 8.14056 24.6927 8.39061 24.9427C8.64065 25.1928 8.97979 25.3333 9.33341 25.3333Z" fill="black"/>
</svg>
