<svg width="120" height="120" viewBox="0 0 120 120" fill="none" xmlns="http://www.w3.org/2000/svg">
<rect width="120" height="120" fill="white"/>
<path d="M43.4365 40.3944L43.6467 40.441L40.7743 49.2381L40.6108 49.1214C38.7425 51.6182 36.7108 52.8083 34.7258 52.5516C32.9977 52.3182 31.363 50.9182 30.6157 48.9814C30.2187 47.908 30.2654 45.2013 30.7791 42.3778C31.1294 40.371 32.0402 36.6142 33.9552 34.0007C35.2863 32.1807 36.8743 31.3173 38.6258 31.4573C40.4006 31.5973 41.7317 32.274 42.5958 33.4641C44.4874 36.0775 43.4365 40.371 43.4365 40.4177V40.3944Z" fill="#D3651A"/>
<path d="M58.6393 59.1087C58.6393 59.1087 46.8227 81.463 44.7676 83.4697C44.7676 83.4697 53.2681 83.4931 55.7202 85.3365C55.7202 85.3365 66.4159 73.0159 68.0273 56.8452L58.6393 59.1087Z" fill="#D3651A"/>
<path d="M34.5156 59.1555C34.5156 59.1555 26.9726 74.8595 10.9056 66.1791C6.32842 63.7057 5.0907 55.1653 5.0907 55.1653C5.0907 55.1653 0.0931444 68.7692 16.3936 72.3627C32.6941 75.9562 39.7 59.9488 39.7 59.9488L34.4922 59.1555H34.5156Z" fill="#D3651A"/>
<path d="M112.234 72.736C111.394 72.2226 110.39 71.4292 109.362 70.2625C106.139 66.6224 104.038 60.9988 103.15 53.5784L102.94 51.875L102.73 53.5784C102.73 53.5784 102.52 55.2118 102.263 57.1486C102.029 59.062 101.749 61.2554 101.609 62.3522C100.815 68.4424 97.3352 86.2232 97.0783 87.6C95.1867 88.86 88.4611 87.74 87.1533 87.5066L93.6688 61.6988L93.1083 62.3522C89.0916 66.8324 81.8988 68.4891 77.1582 67.8124H76.9246L75.8037 88.5567C75.4301 88.4867 74.9163 88.3933 74.2857 88.2533C71.6702 87.74 67.2098 86.8066 64.0338 86.8066C63.3565 86.8066 62.726 86.8533 62.2122 86.9466C61.8619 85.9199 64.5242 77.1695 67.7936 68.5824L67.887 68.3024H67.6068C63.3565 67.9291 53.0111 66.5524 49.0177 61.4888L48.901 61.3254L48.7375 61.4188C48.4573 61.5821 48.0836 61.8155 47.71 62.0955H47.6633C44.8609 63.7289 37.3179 71.7326 34.4221 76.1895C32.9508 78.9896 28.6772 85.4065 20.854 84.0765C17.2809 83.4698 14.6187 81.393 14.3618 79.8063C14.5953 78.6629 14.9223 78.0329 15.3893 77.8462C16.0432 77.5662 17.0241 78.2429 18.145 78.9896C19.8264 80.133 21.9282 81.5564 24.2168 80.6697C27.4629 79.4096 30.2185 73.6693 32.6239 63.1689C33.8149 55.8885 36.2903 48.2115 39.2562 42.6113C41.9418 37.5477 46.4956 31.4808 52.7542 31.4341C53.1045 31.4341 87.8305 31.5274 98.8298 37.991C103.407 41.7479 104.224 47.9548 105.065 54.4885C105.952 61.2788 106.887 68.2791 112.281 72.6426L112.234 72.736Z" fill="#D3651A"/>
<path d="M56.2339 57.5452C55.183 62.1654 50.3489 77.6828 32.8808 78.5695C12.3534 79.5962 13.8714 61.8387 13.8714 61.8387C13.8714 61.8387 18.1216 71.5691 24.3569 73.0159C43.4597 77.4494 48.8076 61.932 49.8351 57.9185" fill="#D3651A"/>
<path d="M38.6258 53.8584C38.4857 53.8584 38.3689 53.9751 38.3689 54.1151C38.3689 54.2551 38.4857 54.3718 38.6258 54.3718C39.1863 54.3718 39.8635 54.3718 40.5641 54.4184C40.5641 54.4184 42.6425 54.4184 44.5341 55.0251C44.7209 55.0951 44.8844 55.1885 44.9545 55.2818C45.0012 55.3285 45.0712 55.3751 45.1413 55.3751C45.2113 55.3751 45.2581 55.3751 45.3048 55.3051C45.3982 55.2118 45.4215 55.0485 45.3048 54.9551C44.3239 53.8584 39.1863 53.8584 38.6024 53.8584H38.6258Z" fill="white"/>
<path d="M37.7383 57.0085C37.5982 56.9619 37.4581 57.0319 37.4114 57.1719C37.3647 57.3119 37.4347 57.4519 37.5749 57.4986C39.0694 57.9652 41.5215 58.922 41.8251 59.4586C41.8718 59.552 41.9652 59.5987 42.0353 59.5987C42.082 59.5987 42.1287 59.5987 42.1521 59.5753C42.2688 59.5053 42.3155 59.342 42.2455 59.2253C41.7551 58.3619 38.3922 57.2419 37.715 57.0319L37.7383 57.0085Z" fill="white"/>
<path d="M114.383 73.6926C107.424 69.6558 106.396 61.9554 105.439 54.5118C104.575 47.8848 103.734 41.5845 99.0167 37.711C87.9007 31.1773 53.0813 31.084 52.731 31.084C49.3682 31.1073 46.4257 32.7174 43.9035 35.3075C43.7167 34.5608 43.4131 33.8375 42.9461 33.1841C42.0119 31.9007 40.564 31.1773 38.6491 31.014C36.7575 30.874 35.0527 31.784 33.6282 33.7208C30.3821 38.131 29.3312 46.8581 30.2187 49.0982C31.0127 51.1516 32.7408 52.645 34.609 52.925C33.6515 56.0052 32.9276 58.992 32.4605 61.5821C30.3588 64.3589 26.272 68.3724 20.1535 68.3724C19.4529 68.3724 18.7757 68.3257 18.0751 68.209C15.623 65.1522 14.1284 61.8154 14.105 61.7454L13.7781 60.9754L13.708 61.8154C13.708 61.8154 13.5212 64.2422 14.2685 67.2057C13.241 66.8323 12.1901 66.3656 11.1626 65.7823C6.8189 63.4488 5.58118 55.1651 5.58118 55.0718C5.55782 54.8618 5.39436 54.7218 5.18418 54.6984H5.16082C4.99735 54.6984 4.81053 54.8151 4.76382 54.9784C4.67041 55.1885 2.70875 60.672 5.46441 65.7356C7.35601 69.2124 11.0458 71.5692 16.3703 72.7359C16.5571 72.7826 16.7673 72.8293 16.9541 72.8526C17.2577 73.2493 17.608 73.6693 17.9817 74.066C20.1068 76.2594 22.9792 77.7295 26.5055 78.3595C25.7349 79.3162 24.9409 79.9696 24.1235 80.2963C22.0451 81.1363 20.1301 79.8296 18.4487 78.6629C17.211 77.8228 16.1601 77.1228 15.296 77.4728C14.6889 77.7295 14.2685 78.4528 14.0116 79.7829V79.8762C14.2452 81.5797 16.9541 83.8431 20.8541 84.5431C23.2828 84.9398 29.051 85.0798 33.4881 78.7095C44.6275 77.9628 50.5592 71.2892 53.6184 65.3856C53.9453 65.5489 54.2723 65.6889 54.5992 65.8523C50.5358 73.3426 45.7251 81.9763 44.5574 83.1197C44.4407 83.2597 44.394 83.4231 44.464 83.5864C44.5341 83.7498 44.6742 83.8431 44.861 83.8431C44.9544 83.8431 53.2681 83.8898 55.5567 85.6398C55.6501 85.6865 55.7202 85.7332 55.8136 85.7332C55.9304 85.7332 56.0471 85.6865 56.1405 85.5698C56.2339 85.4765 62.0956 78.6395 65.8087 68.5357C66.3925 68.6057 66.9297 68.6524 67.3967 68.6991C66.556 70.9392 60.6944 86.6666 62.1189 87.3666H62.1656H62.259C65.2015 86.7832 71.1332 87.9966 74.3092 88.65C75.0799 88.8133 75.687 88.93 76.084 89H76.3176L77.4385 68.2324C78.5595 68.3724 79.8205 68.3957 81.1049 68.2557C80.1475 74.4627 79.3068 81.5797 79.8205 84.9865L79.8906 85.4532L80.3576 85.3365C81.572 85.0565 87.6672 83.4697 88.1342 81.4163C88.251 80.903 88.2743 79.5262 88.2743 76.9594C88.2743 74.206 88.2743 69.9591 88.5779 66.249C90.2126 65.4789 91.7072 64.4522 92.9683 63.2155L86.7564 87.8333L86.9666 87.8799C87.3169 87.95 95.3503 89.4434 97.4988 87.8799L97.5689 87.8333V87.7399C97.5689 87.7399 98.5263 82.8864 99.5772 77.3561C100.605 71.8259 101.749 65.5489 102.146 62.3754C102.333 60.8587 102.8 57.2885 103.057 55.1884C105.532 71.5692 113.449 73.8326 114.36 74.0426L115.714 74.3693L114.5 73.6693L114.383 73.6926ZM30.6157 48.9815C30.2187 47.9081 30.2654 45.2013 30.7791 42.3779C31.1294 40.3711 32.0402 36.6143 33.9551 34.0008C35.2863 32.1807 36.8743 31.3174 38.6258 31.4574C40.4006 31.5974 41.7317 32.2741 42.5958 33.4641C43.0628 34.1408 43.3664 34.9109 43.5299 35.7042C39.5832 39.9044 36.6641 46.368 34.7258 52.575C32.9977 52.3417 31.363 50.9416 30.6157 49.0048V48.9815ZM20.1535 68.8157C26.0385 68.8157 30.0552 65.2922 32.3204 62.5155C32.2737 62.7255 32.227 62.9588 32.2037 63.1688C31.5498 65.9456 30.9192 68.3724 30.2187 70.4725C28.3971 71.5225 26.272 72.3159 23.8666 72.6659C21.7882 72.0126 19.9667 70.4491 18.4721 68.6991C19.0559 68.7691 19.6164 68.7924 20.1768 68.7924L20.1535 68.8157ZM30.0318 71.0092C29.7516 71.9192 29.4246 72.7593 29.0977 73.5293C27.7899 73.4359 26.3888 73.2493 24.9175 72.9226C26.8091 72.5259 28.5139 71.8492 30.0318 71.0092ZM16.417 72.3626C0.0932173 68.7691 5.09076 55.1651 5.09076 55.1651C5.09076 55.1651 6.32848 63.7288 10.9057 66.179C12.12 66.8323 13.2643 67.3457 14.3619 67.7424C14.7823 69.2591 15.4362 70.8458 16.4871 72.3859C16.4637 72.3859 16.4403 72.3859 16.3936 72.3859L16.417 72.3626ZM20.8307 84.1464C17.2577 83.5397 14.5955 81.463 14.3386 79.8762C14.5721 78.7329 14.8991 78.1028 15.3661 77.9162C16.02 77.6361 17.0008 78.3128 18.1218 79.0595C19.8032 80.2029 21.905 81.6263 24.1936 80.7396C25.151 80.3663 26.0385 79.6196 26.8792 78.4995C28.2103 78.7095 29.6582 78.8495 31.1761 78.8495C31.7132 78.8495 32.2504 78.8495 32.8108 78.8029C30.6156 81.743 26.739 85.1965 20.8074 84.1698L20.8307 84.1464ZM55.6968 85.3365C53.2681 83.4931 44.7676 83.4464 44.7676 83.4464C46.052 82.1864 51.2597 72.7593 54.9262 66.0156C58.4058 67.4157 62.3524 68.139 65.2716 68.5124C61.5818 78.5695 55.7202 85.3132 55.7202 85.3132L55.6968 85.3365ZM87.5738 81.3696C87.13 83.2597 80.1008 84.9865 80.1008 84.9865C79.6104 81.6263 80.4511 74.486 81.4085 68.3024C83.557 68.069 85.8456 67.4623 87.9707 66.5056C87.5037 72.6893 87.8073 80.2263 87.5738 81.393V81.3696ZM109.339 70.2625C106.116 66.6223 104.014 60.9987 103.127 53.5784L102.917 51.875L102.707 53.5784C102.707 53.5784 102.496 55.2118 102.239 57.1485C102.006 59.062 101.726 61.2554 101.586 62.3521C100.792 68.4424 97.312 86.2232 97.0551 87.5999C95.1635 88.86 88.4378 87.7399 87.13 87.5066L93.6455 61.6987L93.0851 62.3521C91.824 63.7755 90.2126 64.9189 88.4845 65.7823C88.3444 65.8523 88.2043 65.9223 88.0408 65.9923C85.939 66.9957 83.6738 67.6024 81.5253 67.8357C81.3618 67.8357 81.2217 67.859 81.0582 67.8824C79.6804 67.999 78.3259 67.9757 77.1349 67.8124H76.9014L75.7805 88.5566C75.4068 88.4866 74.893 88.3933 74.2625 88.2533C71.647 87.7399 67.1865 86.8066 64.0105 86.8066C63.3333 86.8066 62.7027 86.8532 62.189 86.9466C61.8387 85.9199 64.5009 77.1695 67.7704 68.5824L67.8638 68.3024H67.5835C67.0698 68.2557 66.4859 68.1857 65.832 68.1157C65.6919 68.1157 65.5518 68.0924 65.4117 68.069C62.5393 67.719 58.5926 67.019 55.113 65.6423C54.9729 65.5956 54.8561 65.5256 54.716 65.4789C54.3657 65.3389 54.0388 65.1989 53.7118 65.0122C55.2765 61.9554 56.0705 59.1553 56.4208 57.5452C56.4441 57.4519 56.3974 57.3352 56.2573 57.2885C56.1405 57.2885 56.0471 57.3352 56.0004 57.4519C55.6501 59.0153 54.8561 61.7921 53.3382 64.8256C53.2681 64.9422 53.1981 65.0822 53.128 65.1989C50.1154 70.9158 44.3706 77.4028 33.6515 78.2428C33.4647 78.2662 33.2779 78.2662 33.0911 78.2895C32.9977 78.2895 32.9042 78.2895 32.8108 78.2895C30.7558 78.3828 28.8408 78.3128 27.1127 78.0562C26.9492 78.0328 26.8091 78.0095 26.6456 77.9628C23.096 77.3561 20.2469 75.9327 18.1685 73.7393C17.9116 73.4826 17.6781 73.2259 17.4679 72.9459C17.3278 72.7826 17.1876 72.5959 17.0709 72.4326C15.9733 70.9625 15.2727 69.3291 14.829 67.8357C14.7589 67.6724 14.7356 67.4857 14.6655 67.3223C14.1518 65.3856 14.0116 63.6588 14.0116 62.6555C14.5721 63.7988 15.7164 65.9456 17.3511 68.0224C17.4912 68.1857 17.608 68.3491 17.7481 68.5124C19.1727 70.2391 20.9241 71.8492 22.9325 72.6893C23.2127 72.8059 23.493 72.9226 23.7966 72.9926C23.9367 73.0626 24.0768 73.0859 24.2403 73.1326C25.8516 73.506 27.3929 73.7393 28.8642 73.8326C29.0043 73.8326 29.1444 73.856 29.2845 73.856C31.9001 74.0193 34.3054 73.7626 36.5473 73.1093C36.8042 73.0159 37.0611 72.9459 37.318 72.8526C39.8168 71.9892 42.0119 70.6125 43.9502 68.6757C46.0987 66.5523 47.5466 64.0789 48.5041 61.9554C48.5975 61.7221 48.7143 61.4887 48.7843 61.2787C49.3915 59.832 49.7418 58.6186 49.952 57.8719C49.9753 57.7552 49.9286 57.6386 49.7885 57.6152C49.6951 57.5919 49.5783 57.6386 49.5316 57.7786C49.2747 58.7353 48.8544 60.0887 48.2005 61.6287C48.0137 61.7454 47.8035 61.9088 47.6167 62.0488H47.57C45.4215 63.3088 40.494 68.279 37.0144 72.5259C34.8659 73.2259 32.3438 73.5993 29.4713 73.4126C29.8216 72.5259 30.1719 71.5925 30.5222 70.5425C30.5689 70.3558 30.639 70.1691 30.7091 69.9591C31.3396 67.9524 31.9468 65.6656 32.5306 63.0755C32.624 62.5855 32.6941 62.1188 32.8108 61.6287C32.8575 61.2787 32.9276 60.9287 32.9977 60.602C33.5114 57.9886 34.1887 55.3518 34.9827 52.8317C35.006 52.6917 35.0761 52.5517 35.1228 52.435C36.2671 48.8182 37.6449 45.4113 39.1629 42.5412C40.3072 40.3944 41.7784 38.061 43.5766 36.1009C43.7167 35.9609 43.8335 35.8209 43.9502 35.7042C43.9736 35.6809 44.0203 35.6342 44.0437 35.6109L43.9736 35.7976L43.6233 36.6609L43.273 37.5476C42.5724 38.2243 40.6575 42.0278 40.2371 43.1946C39.9802 43.9646 40.3772 44.758 41.1712 45.0847C41.288 45.1313 41.4515 45.178 41.6149 45.2713C42.479 45.6447 43.9269 46.2514 45.0945 46.298C45.3514 46.298 46.6592 46.0414 48.2005 40.6511L50.3023 41.3278C49.8586 42.4012 48.4107 46.0414 48.5975 47.1847C48.761 48.1881 50.8394 49.0282 52.7076 49.4949C52.9412 49.5649 53.1747 49.5882 53.4082 49.5882C54.3657 49.5882 55.1597 49.0048 55.8136 47.8148C56.701 46.228 57.9387 42.7979 58.1956 41.3745C59.1064 40.8611 60.0171 40.3478 60.8812 39.8111C60.6477 40.7445 60.5776 41.4445 60.5543 41.4912C60.5543 41.6545 60.6477 41.7712 60.7644 41.7712C60.9046 41.7712 61.0447 41.6778 61.0447 41.5378C61.0447 41.5378 61.1614 40.6044 61.5117 39.4144C61.5818 39.2044 61.6752 38.9477 61.7453 38.7144C62.2123 37.4543 62.983 35.9842 64.2207 35.0975C65.4351 34.2108 66.9296 33.9541 68.6811 34.3275C69.0314 34.3975 69.3116 34.5375 69.5685 34.7242C69.732 34.8408 69.8955 34.9809 70.0356 35.1209C70.6428 35.7509 71.0398 36.5909 71.32 37.3376C72.8847 41.6545 72.2074 49.4715 68.7979 53.7884C67.8638 54.9551 66.4626 55.5151 64.9913 55.2818C63.45 55.0251 62.1656 53.9051 61.5585 52.295C61.5117 52.155 61.3716 52.085 61.2315 52.1316C61.0914 52.1783 61.0213 52.3417 61.068 52.4583C61.7219 54.2784 63.1465 55.5151 64.8746 55.7718C65.1315 55.8185 65.365 55.8418 65.6219 55.8418C66.9764 55.8418 68.2608 55.2118 69.1482 54.0917C72.7212 49.5882 73.3751 41.7012 71.7637 37.1743C71.4368 36.2876 71.0631 35.5642 70.5727 35.0042C71.9739 34.7942 73.2116 35.0042 74.1924 35.9842C76.014 37.781 75.4302 39.7644 75.4535 40.3011C75.4769 40.6978 75.8972 40.6278 75.9439 40.4178C75.9673 40.3011 76.5978 37.6176 74.5427 35.6342C73.3284 34.4442 71.8571 34.2108 70.1524 34.5608C69.732 34.1875 69.265 33.9308 68.7745 33.8375C66.8829 33.4408 65.2716 33.7441 63.9405 34.7008C62.3992 35.8442 61.5584 37.6643 61.068 39.1344C60.1339 39.6711 59.1764 40.2544 58.219 40.7911C55.2298 36.1942 47.4999 36.4043 44.0437 37.3143C43.9969 37.3143 43.9502 37.3143 43.8802 37.3376L44.0437 36.9409L44.8377 34.8408C47.0328 32.8341 49.625 31.434 52.5909 31.4107C52.9412 31.4107 87.6672 31.504 98.6665 37.9677C103.244 41.7245 104.061 47.9315 104.902 54.4651C105.789 61.2554 106.723 68.2557 112.118 72.6192C111.277 72.1059 110.273 71.3125 109.245 70.1458L109.339 70.2625ZM37.8785 72.3626C41.3347 68.209 45.8652 63.7288 47.7801 62.5855L47.8736 62.5388C47.8736 62.5388 47.8969 62.5155 47.9203 62.5155C46.2155 66.0856 43.1796 70.3091 37.9018 72.3626H37.8785ZM50.9328 41.1878C50.9328 41.1878 50.8394 41.0711 50.7693 41.0478L48.1538 40.1844H48.0837C48.0837 40.1844 47.9903 40.1844 47.967 40.1844C47.8969 40.2078 47.8502 40.2778 47.8268 40.3478C47.4999 41.4912 47.0562 42.8679 46.5658 43.9646C46.0754 45.038 45.5382 45.8547 45.1646 45.8547C44.0904 45.8314 42.7125 45.2247 41.8718 44.8746C41.7083 44.8046 41.5449 44.7346 41.4281 44.688C40.8676 44.478 40.6108 43.9646 40.7742 43.4512C41.3113 41.9112 43.2964 38.3177 43.6467 37.991C43.6467 37.991 43.6544 37.991 43.67 37.991C43.8101 37.9677 43.9502 37.8977 44.1371 37.8743C47.4298 36.9876 54.9495 36.7076 57.8453 41.0478C57.822 41.6312 56.6076 45.528 55.4399 47.6514C54.7394 48.9115 53.9921 49.3548 52.8945 49.0982C50.5592 48.5381 49.228 47.7214 49.158 47.2081C48.9945 46.2514 50.3723 42.6812 50.9328 41.3745C50.9328 41.3045 50.9328 41.2345 50.9328 41.1645V41.1878Z" fill="white"/>
</svg>
