<svg width="21" height="21" viewBox="0 0 21 21" fill="none" xmlns="http://www.w3.org/2000/svg">
<path d="M0.833008 16.2876C0.833008 15.1601 0.833008 14.5963 0.968031 14.1364C1.28762 13.048 2.13881 12.1968 3.22723 11.8772C3.68708 11.7422 4.25087 11.7422 5.37846 11.7422V11.7422C6.50605 11.7422 7.06984 11.7422 7.52969 11.8772C8.61812 12.1968 9.4693 13.048 9.78889 14.1364C9.92392 14.5963 9.92392 15.1601 9.92392 16.2876V16.2876C9.92392 17.4152 9.92392 17.979 9.78889 18.4389C9.4693 19.5273 8.61812 20.3785 7.52969 20.6981C7.06984 20.8331 6.50605 20.8331 5.37846 20.8331V20.8331C4.25087 20.8331 3.68708 20.8331 3.22723 20.6981C2.13881 20.3785 1.28762 19.5273 0.968031 18.4389C0.833008 17.979 0.833008 17.4152 0.833008 16.2876V16.2876Z" fill="#868D92"/>
<path d="M11.7422 16.2876C11.7422 15.1601 11.7422 14.5963 11.8772 14.1364C12.1968 13.048 13.048 12.1968 14.1364 11.8772C14.5963 11.7422 15.1601 11.7422 16.2876 11.7422V11.7422C17.4152 11.7422 17.979 11.7422 18.4389 11.8772C19.5273 12.1968 20.3785 13.048 20.6981 14.1364C20.8331 14.5963 20.8331 15.1601 20.8331 16.2876V16.2876C20.8331 17.4152 20.8331 17.979 20.6981 18.4389C20.3785 19.5273 19.5273 20.3785 18.4389 20.6981C17.979 20.8331 17.4152 20.8331 16.2876 20.8331V20.8331C15.1601 20.8331 14.5963 20.8331 14.1364 20.6981C13.048 20.3785 12.1968 19.5273 11.8772 18.4389C11.7422 17.979 11.7422 17.4152 11.7422 16.2876V16.2876Z" fill="#868D92"/>
<path d="M0.833008 5.37846C0.833008 4.25087 0.833008 3.68708 0.968031 3.22723C1.28762 2.13881 2.13881 1.28762 3.22723 0.968031C3.68708 0.833008 4.25087 0.833008 5.37846 0.833008V0.833008C6.50605 0.833008 7.06984 0.833008 7.52969 0.968031C8.61812 1.28762 9.4693 2.13881 9.78889 3.22723C9.92392 3.68708 9.92392 4.25087 9.92392 5.37846V5.37846C9.92392 6.50605 9.92392 7.06984 9.78889 7.52969C9.4693 8.61812 8.61812 9.4693 7.52969 9.78889C7.06984 9.92392 6.50605 9.92392 5.37846 9.92392V9.92392C4.25087 9.92392 3.68708 9.92392 3.22723 9.78889C2.13881 9.4693 1.28762 8.61812 0.968031 7.52969C0.833008 7.06984 0.833008 6.50605 0.833008 5.37846V5.37846Z" fill="#868D92"/>
<path d="M11.7422 5.37846C11.7422 4.25087 11.7422 3.68708 11.8772 3.22723C12.1968 2.13881 13.048 1.28762 14.1364 0.968031C14.5963 0.833008 15.1601 0.833008 16.2876 0.833008V0.833008C17.4152 0.833008 17.979 0.833008 18.4389 0.968031C19.5273 1.28762 20.3785 2.13881 20.6981 3.22723C20.8331 3.68708 20.8331 4.25087 20.8331 5.37846V5.37846C20.8331 6.50605 20.8331 7.06984 20.6981 7.52969C20.3785 8.61812 19.5273 9.4693 18.4389 9.78889C17.979 9.92392 17.4152 9.92392 16.2876 9.92392V9.92392C15.1601 9.92392 14.5963 9.92392 14.1364 9.78889C13.048 9.4693 12.1968 8.61812 11.8772 7.52969C11.7422 7.06984 11.7422 6.50605 11.7422 5.37846V5.37846Z" fill="#868D92"/>
</svg>
