<svg width="65" height="65" viewBox="0 0 65 65" fill="none" xmlns="http://www.w3.org/2000/svg">
<g clip-path="url(#clip0_1921_1897)">
<path d="M48 0H17C7.61116 0 0 7.61116 0 17V48C0 57.3888 7.61116 65 17 65H48C57.3888 65 65 57.3888 65 48V17C65 7.61116 57.3888 0 48 0Z" fill="#ECECEC"/>
<path d="M46.1351 25.9039L36.7284 15.5289C36.5667 15.3498 36.3694 15.2065 36.149 15.1082C35.9286 15.01 35.6901 14.9589 35.4488 14.9583H23.3447C22.7701 14.9515 22.1999 15.0578 21.6665 15.2714C21.1331 15.4849 20.647 15.8015 20.2359 16.2029C19.8249 16.6043 19.4969 17.0828 19.2708 17.611C19.0446 18.1392 18.9248 18.7067 18.918 19.2812V45.2187C18.9248 45.7933 19.0446 46.3608 19.2708 46.889C19.4969 47.4172 19.8249 47.8957 20.2359 48.2971C20.647 48.6985 21.1331 49.015 21.6665 49.2286C22.1999 49.4421 22.7701 49.5485 23.3447 49.5417H42.158C42.7325 49.5485 43.3027 49.4421 43.8361 49.2286C44.3695 49.015 44.8557 48.6985 45.2667 48.2971C45.6778 47.8957 46.0057 47.4172 46.2319 46.889C46.458 46.3608 46.5779 45.7933 46.5847 45.2187V27.0625C46.5835 26.6339 46.4233 26.2211 46.1351 25.9039ZM42.5211 27.0625H35.7082C35.3517 27.0274 35.0233 26.8537 34.7937 26.5788C34.564 26.3038 34.4516 25.9497 34.4805 25.5927V18.4167H34.6707L42.5211 27.0625ZM42.158 46.0833H23.3447C23.2243 46.0903 23.1037 46.0735 22.9898 46.0338C22.8759 45.9941 22.771 45.9324 22.681 45.852C22.5911 45.7717 22.5178 45.6744 22.4656 45.5658C22.4133 45.4571 22.3829 45.3392 22.3763 45.2187V19.2812C22.3829 19.1608 22.4133 19.0429 22.4656 18.9342C22.5178 18.8255 22.5911 18.7283 22.681 18.6479C22.771 18.5676 22.8759 18.5058 22.9898 18.4662C23.1037 18.4265 23.2243 18.4096 23.3447 18.4167H31.0222V25.5927C30.9942 26.8664 31.4713 28.0995 32.3492 29.0228C33.2272 29.9461 34.4347 30.4846 35.7082 30.5208H43.1263V45.2187C43.1197 45.3392 43.0894 45.4571 43.0371 45.5658C42.9848 45.6744 42.9116 45.7717 42.8216 45.852C42.7317 45.9324 42.6267 45.9941 42.5129 46.0338C42.399 46.0735 42.2784 46.0903 42.158 46.0833Z" fill="#868D92" stroke="#ECECEC"/>
</g>
<defs>
<clipPath id="clip0_1921_1897">
<rect width="65" height="65" fill="white"/>
</clipPath>
</defs>
</svg>
